<svg width="13" height="12" viewBox="0 0 17 16" fill="none" xmlns="http://www.w3.org/2000/svg">
<path d="M13.8125 13H3.1875C2.90571 13 2.63546 12.8946 2.4362 12.7071C2.23694 12.5196 2.125 12.2652 2.125 12V5C2.125 4.73478 2.23694 4.48043 2.4362 4.29289C2.63546 4.10536 2.90571 4 3.1875 4H5.3125L6.375 2.5H10.625L11.6875 4H13.8125C14.0943 4 14.3645 4.10536 14.5638 4.29289C14.7631 4.48043 14.875 4.73478 14.875 5V12C14.875 12.2652 14.7631 12.5196 14.5638 12.7071C14.3645 12.8946 14.0943 13 13.8125 13Z" stroke="#172739" stroke-linecap="round" stroke-linejoin="round"/>
<path d="M8.5 10.5C9.82031 10.5 10.8906 9.49264 10.8906 8.25C10.8906 7.00736 9.82031 6 8.5 6C7.17969 6 6.10938 7.00736 6.10938 8.25C6.10938 9.49264 7.17969 10.5 8.5 10.5Z" stroke="#172739" stroke-linecap="round" stroke-linejoin="round"/>
</svg>
