<svg width="24" height="24" viewBox="0 0 21 20" fill="none" xmlns="http://www.w3.org/2000/svg">
<rect opacity="0.2" x="0.966797" width="20.0328" height="19.2623" fill="#BDBDBD"/>
<path d="M12.6814 14.6393C13.7138 14.6393 14.5426 13.8378 14.5833 12.8052L14.8007 6.09401H15.8196C15.969 6.09401 16.0913 5.97176 16.0913 5.82232C16.0913 5.67288 15.969 5.55063 15.8196 5.55063H12.9666V4.93931C12.9666 4.34153 12.4776 3.85245 11.8798 3.85245H9.81486C9.21707 3.85245 8.72799 4.34153 8.72799 4.93931V5.55063H5.86145C5.71201 5.55063 5.58977 5.67288 5.58977 5.82232C5.58977 5.97176 5.71202 6.09401 5.86145 6.09401H6.88037L7.09776 12.8052C7.1385 13.8377 7.96723 14.6393 8.99968 14.6393H12.6814ZM9.27142 4.93929C9.27142 4.64041 9.51591 4.39592 9.81479 4.39592H11.8798C12.1787 4.39592 12.4232 4.64041 12.4232 4.93929V5.55061H9.27134L9.27142 4.93929ZM7.65472 12.7781L7.43733 6.08047H14.2708L14.04 12.7781C14.0128 13.5117 13.415 14.0959 12.6814 14.0959H9.01335C8.27969 14.0959 7.6819 13.5252 7.6547 12.7781H7.65472Z" fill="#EB5757"/>
<path d="M10.8473 12.357C10.9967 12.357 11.119 12.2347 11.119 12.0853V8.02324C11.119 7.8738 10.9967 7.75156 10.8473 7.75156C10.6978 7.75156 10.5756 7.8738 10.5756 8.02324V12.0853C10.5756 12.2347 10.6978 12.3569 10.8473 12.3569V12.357Z" fill="#EB5757"/>
<path d="M9.21703 12.357C9.36647 12.357 9.48871 12.2347 9.48871 12.0853V8.02324C9.48871 7.8738 9.36647 7.75156 9.21703 7.75156C9.06758 7.75156 8.94534 7.8738 8.94534 8.02324V12.0853C8.94534 12.2347 9.06759 12.3569 9.21703 12.3569V12.357Z" fill="#EB5757"/>
<path d="M12.4775 12.357C12.627 12.357 12.7492 12.2347 12.7492 12.0853V8.02324C12.7492 7.8738 12.627 7.75156 12.4775 7.75156C12.3281 7.75156 12.2058 7.8738 12.2058 8.02324V12.0853C12.2058 12.2347 12.3281 12.3569 12.4775 12.3569V12.357Z" fill="#EB5757"/>
</svg>
