<svg width="18" height="17" viewBox="0 0 18 17" fill="none" xmlns="http://www.w3.org/2000/svg">
    <path
        d="M15.677 16.607L9.962 10.891C7.41966 12.6985 3.91643 12.2564 1.90287 9.87393C-0.110696 7.49152 0.0371547 3.96359 2.243 1.758C4.44826 -0.448549 7.97652 -0.597039 10.3594 1.41642C12.7422 3.42988 13.1846 6.93345 11.377 9.476L17.092 15.192L15.678 16.606L15.677 16.607ZM6.485 1.99999C4.5887 1.99956 2.95269 3.33068 2.56747 5.18744C2.18225 7.0442 3.15371 8.91628 4.89367 9.67024C6.63364 10.4242 8.66389 9.85284 9.75524 8.30206C10.8466 6.75128 10.6991 4.64732 9.402 3.264L10.007 3.864L9.325 3.184L9.313 3.172C8.56478 2.41918 7.54639 1.99713 6.485 1.99999Z"
        fill="#2E3A59" />
</svg>